<svg height='300px' width='300px'  fill="#000000" xmlns="http://www.w3.org/2000/svg" xmlns:xlink="http://www.w3.org/1999/xlink" xml:space="preserve" version="1.1" style="shape-rendering:geometricPrecision;text-rendering:geometricPrecision;image-rendering:optimizeQuality;" viewBox="0 0 425 352" x="0px" y="0px" fill-rule="evenodd" clip-rule="evenodd"><defs><style type="text/css">
   
    .fil1 {fill:#000000}
    .fil0 {fill:#000000;fill-rule:nonzero}
   
  </style></defs><g><path class="fil0" d="M15 30c-8,0 -15,-7 -15,-15 0,-8 7,-15 15,-15l22 0c32,0 58,22 64,52l2 11 307 0c10,0 17,9 15,19l-44 175c-1,7 -7,13 -15,13l-240 0c-7,0 -13,-5 -14,-12l-40 -200c-3,-17 -18,-28 -35,-28l-22 0zm94 63l29 147 217 0 36 -147 -282 0z"></path><path class="fil1" d="M152 287c18,0 33,14 33,32 0,19 -15,33 -33,33 -18,0 -33,-14 -33,-33 0,-18 15,-32 33,-32z"></path><path class="fil1" d="M340 287c18,0 32,14 32,32 0,19 -14,33 -32,33 -19,0 -33,-14 -33,-33 0,-18 14,-32 33,-32z"></path></g></svg>