<?xml version="1.0" encoding="utf-8"?>
<!-- Generator: Adobe Illustrator 25.0.1, SVG Export Plug-In . SVG Version: 6.00 Build 0)  -->
<svg version="1.1" id="Layer_1" xmlns="http://www.w3.org/2000/svg" xmlns:xlink="http://www.w3.org/1999/xlink" x="0px" y="0px"
	 viewBox="0 0 25.9 15.3" style="enable-background:new 0 0 25.9 15.3;" xml:space="preserve">
<style type="text/css">
	.st0{fill:#6D08DE;}
</style>
<g>
	<path class="st0" d="M25.7,7.2C25.5,6.9,20.7,0,12.9,0C6.3,0,0.5,6.8,0.2,7.1C0,7.4,0,7.9,0.2,8.1c0.2,0.3,6.1,7.1,12.7,7.1
		c6.6,0,12.5-6.8,12.7-7.1C25.9,7.9,25.9,7.5,25.7,7.2z M24.1,7.6c-1.5,1.6-6.1,6.1-11,6.1h-0.1c-4.9,0-9.5-4.5-11.1-6.1
		C3.4,6,8,1.6,12.9,1.6C18.7,1.6,22.8,6,24.1,7.6z"/>
	<path class="st0" d="M12.9,3.2L12.9,3.2c-2.5,0-4.5,2-4.5,4.5c0,2.5,2,4.5,4.5,4.5c2.5,0,4.5-2,4.5-4.5C17.4,5.2,15.4,3.2,12.9,3.2
		z M15.9,7.6c0,1.6-1.3,2.9-2.9,2.9c-1.6,0-2.9-1.3-2.9-2.9c0-1.6,1.3-2.9,2.9-2.9C14.6,4.7,15.9,6,15.9,7.6z"/>
</g>
</svg>
