<svg xmlns="http://www.w3.org/2000/svg" width="25.883" height="15.279" viewBox="0 0 25.883 15.279">
  <g id="eye" transform="translate(-1119.722 -559.044)">
    <g id="visibility" transform="translate(1120 559.294)">
      <g id="Group_6656" data-name="Group 6656" transform="translate(0 0)">
        <g id="Group_6655" data-name="Group 6655" transform="translate(0 0)">
          <path id="Path_2944" data-name="Path 2944" d="M25.241,113.751c-.2-.29-4.994-7.089-12.573-7.089-6.5,0-12.3,6.76-12.543,7.048a.53.53,0,0,0,0,.682c.244.288,6.039,7.048,12.543,7.048s12.3-6.76,12.543-7.048A.528.528,0,0,0,25.241,113.751Zm-12.573,6.633c-5.214,0-10.171-4.972-11.43-6.334,1.257-1.363,6.209-6.334,11.43-6.334,6.1,0,10.406,4.965,11.458,6.305C22.911,115.341,17.925,120.385,12.667,120.385Z" transform="translate(0 -106.662)" fill="#b1b1b1" stroke="#b1b1b1" stroke-width="0.5"/>
        </g>
      </g>
      <g id="Group_6658" data-name="Group 6658" transform="translate(8.445 3.167)">
        <g id="Group_6657" data-name="Group 6657">
          <path id="Path_2945" data-name="Path 2945" d="M174.884,170.662a4.222,4.222,0,1,0,4.222,4.222A4.227,4.227,0,0,0,174.884,170.662Zm0,7.389a3.167,3.167,0,1,1,3.167-3.167A3.171,3.171,0,0,1,174.884,178.051Z" transform="translate(-170.662 -170.662)" fill="#b1b1b1" stroke="#b1b1b1" stroke-width="0.5"/>
        </g>
      </g>
    </g>
  </g>
</svg>
