<svg xmlns="http://www.w3.org/2000/svg" width="42.888" height="53.911" viewBox="0 0 42.888 53.911">
  <g id="file" transform="translate(0.5 0.5)">
    <g id="Group_4575" data-name="Group 4575" transform="translate(6.614 6.614)">
      <g id="Group_4574" data-name="Group 4574">
        <rect id="Rectangle_1514" data-name="Rectangle 1514" width="11.023" height="2.205" fill="#6d08df" stroke="#6d08df" stroke-width="1"/>
      </g>
    </g>
    <g id="Group_4577" data-name="Group 4577" transform="translate(6.614 11.023)">
      <g id="Group_4576" data-name="Group 4576">
        <rect id="Rectangle_1515" data-name="Rectangle 1515" width="2.205" height="2.205" fill="#6d08df" stroke="#6d08df" stroke-width="1"/>
      </g>
    </g>
    <g id="Group_4579" data-name="Group 4579" transform="translate(11.023 11.023)">
      <g id="Group_4578" data-name="Group 4578">
        <rect id="Rectangle_1516" data-name="Rectangle 1516" width="2.205" height="2.205" fill="#6d08df" stroke="#6d08df" stroke-width="1"/>
      </g>
    </g>
    <g id="Group_4581" data-name="Group 4581" transform="translate(0)">
      <g id="Group_4580" data-name="Group 4580">
        <path id="Path_2099" data-name="Path 2099" d="M94.9,9.141,86.079.323A1.1,1.1,0,0,0,85.3,0H56.64a3.307,3.307,0,0,0-3.307,3.307V49.6a3.307,3.307,0,0,0,3.307,3.307H91.914A3.307,3.307,0,0,0,95.221,49.6V9.921A1.1,1.1,0,0,0,94.9,9.141ZM93.016,49.6a1.1,1.1,0,0,1-1.1,1.1H56.64a1.1,1.1,0,0,1-1.1-1.1V3.307a1.1,1.1,0,0,1,1.1-1.1h28.2l8.173,8.173Z" transform="translate(-53.333 0)" fill="#6d08df" stroke="#6d08df" stroke-width="1"/>
      </g>
    </g>
    <g id="Group_4583" data-name="Group 4583" transform="translate(30.865 1.102)">
      <g id="Group_4582" data-name="Group 4582">
        <path id="Path_2100" data-name="Path 2100" d="M355.307,18.382a1.1,1.1,0,0,1-1.1-1.1V10.666H352V17.28a3.307,3.307,0,0,0,3.307,3.307h6.266v-2.2Z" transform="translate(-352 -10.666)" fill="#6d08df" stroke="#6d08df" stroke-width="1"/>
      </g>
    </g>
    <g id="Group_4585" data-name="Group 4585" transform="translate(33.069 37.478)">
      <g id="Group_4584" data-name="Group 4584">
        <rect id="Rectangle_1517" data-name="Rectangle 1517" width="2.205" height="2.205" fill="#6d08df" stroke="#6d08df" stroke-width="1"/>
      </g>
    </g>
    <g id="Group_4587" data-name="Group 4587" transform="translate(28.66 37.478)">
      <g id="Group_4586" data-name="Group 4586">
        <rect id="Rectangle_1518" data-name="Rectangle 1518" width="2.205" height="2.205" fill="#6d08df" stroke="#6d08df" stroke-width="1"/>
      </g>
    </g>
    <g id="Group_4589" data-name="Group 4589" transform="translate(6.614 37.478)">
      <g id="Group_4588" data-name="Group 4588">
        <rect id="Rectangle_1519" data-name="Rectangle 1519" width="17.637" height="2.205" fill="#6d08df" stroke="#6d08df" stroke-width="1"/>
      </g>
    </g>
    <g id="Group_4591" data-name="Group 4591" transform="translate(6.614 42.99)">
      <g id="Group_4590" data-name="Group 4590">
        <rect id="Rectangle_1520" data-name="Rectangle 1520" width="28.66" height="2.205" fill="#6d08df" stroke="#6d08df" stroke-width="1"/>
      </g>
    </g>
    <g id="Group_4593" data-name="Group 4593" transform="translate(6.614 16.535)">
      <g id="Group_4592" data-name="Group 4592">
        <path id="Path_2101" data-name="Path 2101" d="M143.789,160H119.539a2.2,2.2,0,0,0-2.2,2.2v13.228a2.2,2.2,0,0,0,2.2,2.2h24.251a2.2,2.2,0,0,0,2.2-2.2V162.2A2.2,2.2,0,0,0,143.789,160Zm0,15.432H119.539V162.2h24.251v13.228Z" transform="translate(-117.334 -160)" fill="#6d08df" stroke="#6d08df" stroke-width="1"/>
      </g>
    </g>
  </g>
</svg>
