<svg xmlns="http://www.w3.org/2000/svg" width="75.78" height="75.78" viewBox="0 0 75.78 75.78">
  <g id="flexible" transform="translate(1.5 1.5)">
    <g id="Group_4557" data-name="Group 4557" transform="translate(0 0)">
      <path id="Path_29" data-name="Path 29" d="M72.78,36.39A36.39,36.39,0,1,1,36.39,0,36.389,36.389,0,0,1,72.78,36.39Zm0,0" transform="translate(0 0)" fill="none" stroke="#6d08de" stroke-width="3"/>
      <path id="Path_30" data-name="Path 30" d="M240,240h4.549v4.549H240Zm0,0" transform="translate(-205.885 -205.885)" fill="none" stroke="#6d08de" stroke-width="3"/>
      <path id="Path_31" data-name="Path 31" d="M314.6,187.953l-3,3.425,4.542,3.973H304V199.9h12.14l-4.542,3.973,3,3.425,11.054-9.673Zm0,0" transform="translate(-260.787 -161.236)" fill="none" stroke="#6d08de" stroke-width="3"/>
      <path id="Path_32" data-name="Path 32" d="M69.746,191.378l-3-3.425L55.7,197.626,66.749,207.3l3-3.425L65.2,199.9h12.14v-4.549H65.2Zm0,0" transform="translate(-47.778 -161.236)" fill="none" stroke="#6d08de" stroke-width="3"/>
    </g>
  </g>
</svg>
