<svg xmlns="http://www.w3.org/2000/svg" width="26.348" height="26.354" viewBox="0 0 26.348 26.354">
  <g id="instagram" transform="translate(-0.449)">
    <path id="Path_2824" data-name="Path 2824" d="M26.73,7.748a9.63,9.63,0,0,0-.613-3.2A6.751,6.751,0,0,0,22.261.7a9.654,9.654,0,0,0-3.2-.613C17.654.016,17.206,0,13.628,0S9.6.016,8.2.077A9.632,9.632,0,0,0,5,.69,6.43,6.43,0,0,0,2.662,2.214,6.488,6.488,0,0,0,1.144,4.546a9.655,9.655,0,0,0-.613,3.2C.464,9.154.449,9.6.449,13.179s.015,4.026.077,5.431a9.629,9.629,0,0,0,.613,3.2,6.75,6.75,0,0,0,3.856,3.856,9.656,9.656,0,0,0,3.2.613c1.405.062,1.853.077,5.431.077s4.026-.015,5.431-.077a9.627,9.627,0,0,0,3.2-.613,6.741,6.741,0,0,0,3.856-3.856,9.662,9.662,0,0,0,.613-3.2c.062-1.405.077-1.853.077-5.431s-.005-4.026-.067-5.431Zm-2.373,10.76a7.223,7.223,0,0,1-.453,2.445,4.372,4.372,0,0,1-2.5,2.5,7.249,7.249,0,0,1-2.445.453c-1.39.062-1.807.077-5.323.077s-3.938-.015-5.323-.077a7.22,7.22,0,0,1-2.445-.453,4.055,4.055,0,0,1-1.513-.983,4.1,4.1,0,0,1-.983-1.513,7.25,7.25,0,0,1-.453-2.445c-.062-1.39-.077-1.807-.077-5.323s.015-3.938.077-5.323a7.22,7.22,0,0,1,.453-2.445,4.006,4.006,0,0,1,.989-1.514A4.091,4.091,0,0,1,5.87,2.924a7.254,7.254,0,0,1,2.445-.453c1.39-.062,1.807-.077,5.323-.077s3.938.015,5.323.077a7.223,7.223,0,0,1,2.445.453,4.052,4.052,0,0,1,1.513.983A4.1,4.1,0,0,1,23.9,5.421a7.253,7.253,0,0,1,.453,2.445c.062,1.39.077,1.807.077,5.323s-.015,3.928-.077,5.318Zm0,0" transform="translate(0 0)" fill="#fff"/>
    <path id="Path_2825" data-name="Path 2825" d="M131.719,124.5a6.77,6.77,0,1,0,6.77,6.77A6.772,6.772,0,0,0,131.719,124.5Zm0,11.161a4.391,4.391,0,1,1,4.391-4.391A4.392,4.392,0,0,1,131.719,135.661Zm0,0" transform="translate(-118.091 -118.09)" fill="#fff"/>
    <path id="Path_2826" data-name="Path 2826" d="M365.611,90.182a1.581,1.581,0,1,1-1.581-1.58A1.581,1.581,0,0,1,365.611,90.182Zm0,0" transform="translate(-343.365 -84.04)" fill="#fff"/>
  </g>
</svg>
