<svg xmlns="http://www.w3.org/2000/svg" width="524.393" height="390.925" viewBox="0 0 524.393 390.925">
  <g id="left_eliments" transform="translate(-38.528 -3904.192)">
    <g id="Group_4610" data-name="Group 4610" transform="matrix(0.966, -0.259, 0.259, 0.966, 146.023, 4131.216)" opacity="0.1" style="mix-blend-mode: multiply;isolation: isolate">
      <rect id="Rectangle_1522" data-name="Rectangle 1522" width="31.042" height="51.219" rx="2.763" transform="translate(0 15.843)" fill="none" stroke="#6d08df" stroke-miterlimit="10" stroke-width="2"/>
      <path id="Path_2115" data-name="Path 2115" d="M57.278,24.713a5.579,5.579,0,0,0-5.58-5.58H28.707a3.728,3.728,0,0,1-3.727-3.727V8.427a8.426,8.426,0,1,0-16.852,0v6.978A3.726,3.726,0,0,1,4.4,19.132h-.75A3.652,3.652,0,0,0,0,22.786V60.12a3.652,3.652,0,0,0,3.651,3.654H45.232v-.292a5.544,5.544,0,0,0,0-10.577v-.292h.848a5.58,5.58,0,1,0,0-11.161H48.3a5.579,5.579,0,1,0,0-11.159h3.4A5.58,5.58,0,0,0,57.278,24.713Z" transform="translate(31.043 0)" fill="none" stroke="#6d08df" stroke-miterlimit="10" stroke-width="2"/>
      <path id="Path_2116" data-name="Path 2116" d="M7.434,3.718A3.717,3.717,0,1,1,3.716,0,3.718,3.718,0,0,1,7.434,3.718Z" transform="translate(11.805 52.613)" fill="none" stroke="#6d08df" stroke-miterlimit="10" stroke-width="2"/>
    </g>
    <text id="_" data-name="$" transform="matrix(0.966, -0.259, 0.259, 0.966, 89.444, 4276.247)" fill="none" stroke="#6d08df" stroke-miterlimit="10" stroke-width="2" font-size="67" font-family="Montserrat-Bold, Montserrat" font-weight="700" opacity="0.1"><tspan x="0" y="0">$</tspan></text>
    <g id="Group_4620" data-name="Group 4620" transform="translate(487.316 4233.143)" opacity="0.1" style="mix-blend-mode: multiply;isolation: isolate">
      <path id="Path_2123" data-name="Path 2123" d="M161.4,377.963a8.7,8.7,0,1,1-8.7-8.7A8.7,8.7,0,0,1,161.4,377.963Z" transform="translate(-143.998 -369.26)" fill="none" stroke="#6d08df" stroke-miterlimit="10" stroke-width="2"/>
      <path id="Path_2124" data-name="Path 2124" d="M179.326,381.429a7.159,7.159,0,1,1-7.159-7.156A7.159,7.159,0,0,1,179.326,381.429Z" transform="translate(-104.721 -359.888)" fill="none" stroke="#6d08df" stroke-miterlimit="10" stroke-width="2"/>
      <path id="Path_2125" data-name="Path 2125" d="M170.237,392.734a8.7,8.7,0,1,1-8.7-8.7A8.7,8.7,0,0,1,170.237,392.734Z" transform="translate(-127.48 -341.647)" fill="none" stroke="#6d08df" stroke-miterlimit="10" stroke-width="2"/>
      <line id="Line_2" data-name="Line 2" x2="16.994" y2="28.363" transform="translate(13.3 16.063)" fill="none" stroke="#6d08df" stroke-miterlimit="10" stroke-width="2"/>
      <line id="Line_3" data-name="Line 3" y1="20.571" x2="20.997" transform="translate(41.52 26.106)" fill="none" stroke="#6d08df" stroke-miterlimit="10" stroke-width="2"/>
    </g>
    <g id="Group_4614" data-name="Group 4614" transform="translate(277.247 4224.054)" opacity="0.1" style="mix-blend-mode: multiply;isolation: isolate">
      <path id="Rectangle_1524" data-name="Rectangle 1524" d="M3.013,0H90.491A3.012,3.012,0,0,1,93.5,3.012V43.03a3.012,3.012,0,0,1-3.012,3.012H3.012A3.012,3.012,0,0,1,0,43.03V3.013A3.013,3.013,0,0,1,3.013,0Z" fill="none" stroke="#6d08df" stroke-miterlimit="10" stroke-width="2"/>
      <text id="ADS" transform="translate(15.685 30.089)" fill="none" font-size="27" font-family="Montserrat-Bold, Montserrat" font-weight="700"><tspan x="0" y="0">ADS</tspan></text>
    </g>
    <g id="Group_4612" data-name="Group 4612" transform="translate(128.643 3905.192)" opacity="0.1" style="mix-blend-mode: multiply;isolation: isolate">
      <path id="Path_2117" data-name="Path 2117" d="M279.456,81H209.616a14.651,14.651,0,0,0-14.651,14.649V130a14.651,14.651,0,0,0,14.651,14.649h28.5v14.573l7.028-14.573h34.312A14.649,14.649,0,0,0,294.1,130V95.649A14.649,14.649,0,0,0,279.456,81Z" transform="translate(-194.965 -81)" fill="none" stroke="#6d08df" stroke-miterlimit="10" stroke-width="2"/>
      <g id="Group_4611" data-name="Group 4611" transform="translate(20.453 28.55)">
        <path id="Path_2118" data-name="Path 2118" d="M209.621,95.589a3.275,3.275,0,1,1-3.275-3.275A3.275,3.275,0,0,1,209.621,95.589Z" transform="translate(-203.07 -92.314)" fill="none" stroke="#6d08df" stroke-miterlimit="10" stroke-width="2"/>
        <path id="Path_2119" data-name="Path 2119" d="M216.448,95.589a3.275,3.275,0,1,1-3.275-3.275A3.275,3.275,0,0,1,216.448,95.589Z" transform="translate(-192.669 -92.314)" fill="none" stroke="#6d08df" stroke-miterlimit="10" stroke-width="2"/>
        <path id="Path_2120" data-name="Path 2120" d="M223.276,95.589A3.275,3.275,0,1,1,220,92.314,3.275,3.275,0,0,1,223.276,95.589Z" transform="translate(-182.267 -92.314)" fill="none" stroke="#6d08df" stroke-miterlimit="10" stroke-width="2"/>
        <path id="Path_2121" data-name="Path 2121" d="M230.1,95.589a3.275,3.275,0,1,1-3.275-3.275A3.275,3.275,0,0,1,230.1,95.589Z" transform="translate(-171.866 -92.314)" fill="none" stroke="#6d08df" stroke-miterlimit="10" stroke-width="2"/>
      </g>
    </g>
    <g id="Group_4617" data-name="Group 4617" transform="translate(49.298 4054.093) rotate(8)" opacity="0.1" style="mix-blend-mode: multiply;isolation: isolate">
      <rect id="Rectangle_1523" data-name="Rectangle 1523" width="69.91" height="69.268" rx="2.238" transform="translate(0 0)" fill="none" stroke="#6d08df" stroke-miterlimit="10" stroke-width="2"/>
      <path id="Path_2122" data-name="Path 2122" d="M30.8,0V9.728H23.236A3.331,3.331,0,0,0,19.9,13.06v8.286H29.992l-1.08,10.447H19.9V58.724H8.916V31.613H0V21.346H9.187V11.259A11.258,11.258,0,0,1,20.446,0Z" transform="translate(28.389 10.545)" fill="none" stroke="#6d08df" stroke-miterlimit="10" stroke-width="2"/>
    </g>
  </g>
</svg>
