<svg xmlns="http://www.w3.org/2000/svg" width="49.886" height="54.688" viewBox="0 0 49.886 54.688">
  <g id="user" transform="translate(0.5 0.5)">
    <g id="Group_4600" data-name="Group 4600" transform="translate(0 0)">
      <g id="Group_4595" data-name="Group 4595" transform="translate(8.085 10.653)">
        <path id="Path_2107" data-name="Path 2107" d="M125.361,103.693H101.049a1.049,1.049,0,0,1,0-2.1h24.312a1.049,1.049,0,0,1,0,2.1Z" transform="translate(-100 -101.596)" fill="#ec6434" stroke="#ec6434" stroke-width="1"/>
      </g>
      <g id="Group_4599" data-name="Group 4599" transform="translate(8.085 5.834)">
        <g id="Group_4596" data-name="Group 4596" transform="translate(20.05)">
          <path id="Path_2108" data-name="Path 2108" d="M302.824,57.735H292.255a1.049,1.049,0,0,1,0-2.1h10.569a1.049,1.049,0,0,1,0,2.1Z" transform="translate(-291.206 -55.638)" fill="#ec6434" stroke="#ec6434" stroke-width="1"/>
        </g>
        <g id="Group_4597" data-name="Group 4597">
          <path id="Path_2109" data-name="Path 2109" d="M111.618,57.735H101.049a1.049,1.049,0,1,1,0-2.1h10.569a1.049,1.049,0,1,1,0,2.1Z" transform="translate(-100 -55.638)" fill="#ec6434" stroke="#ec6434" stroke-width="1"/>
        </g>
        <g id="Group_4598" data-name="Group 4598" transform="translate(15.331 0.002)">
          <path id="Path_2110" data-name="Path 2110" d="M247.247,57.756a1.049,1.049,0,1,1,1.029-.844A1.058,1.058,0,0,1,247.247,57.756Z" transform="translate(-246.2 -55.661)" fill="#ec6434" stroke="#ec6434" stroke-width="1"/>
        </g>
      </g>
      <path id="Path_2111" data-name="Path 2111" d="M57.025,257.847a7.866,7.866,0,1,0-10.689,0,4.966,4.966,0,0,0-4.814,4.958v8.468a1.049,1.049,0,0,0,1.049,1.049h18.22a1.049,1.049,0,0,0,1.049-1.049V262.8A4.966,4.966,0,0,0,57.025,257.847Zm-11.113-5.754a5.769,5.769,0,1,1,5.769,5.752A5.767,5.767,0,0,1,45.912,252.093Zm13.83,18.131H43.619V262.8a2.866,2.866,0,0,1,2.862-2.862h10.4a2.866,2.866,0,0,1,2.862,2.862Z" transform="translate(-39.569 -218.633)" fill="#ec6434" stroke="#ec6434" stroke-width="1"/>
      <path id="Path_2112" data-name="Path 2112" d="M292.225,257.847a7.866,7.866,0,1,0-10.689,0,4.966,4.966,0,0,0-4.814,4.958v8.468a1.049,1.049,0,0,0,1.049,1.049h18.22a1.049,1.049,0,0,0,1.049-1.049V262.8A4.966,4.966,0,0,0,292.225,257.847Zm-11.113-5.754a5.769,5.769,0,1,1,5.769,5.752A5.767,5.767,0,0,1,281.112,252.093Zm13.83,18.131H278.819V262.8a2.866,2.866,0,0,1,2.862-2.862h10.4a2.866,2.866,0,0,1,2.862,2.862Z" transform="translate(-250.106 -218.633)" fill="#ec6434" stroke="#ec6434" stroke-width="1"/>
      <path id="Path_2113" data-name="Path 2113" d="M59.988,22.547a1.048,1.048,0,0,1-.622-.2L54.759,18.95H39.923l-4.607,3.393a1.049,1.049,0,0,1-1.656-.671L33.2,18.95H25.771A2.876,2.876,0,0,1,22.9,16.079V2.872A2.876,2.876,0,0,1,25.771,0h43.14a2.876,2.876,0,0,1,2.873,2.872V16.079a2.876,2.876,0,0,1-2.873,2.871H61.479l-.457,2.722a1.049,1.049,0,0,1-1.034.875ZM39.579,16.853H55.1a1.049,1.049,0,0,1,.622.2l3.511,2.586.322-1.915a1.049,1.049,0,0,1,1.034-.875h8.319a.776.776,0,0,0,.776-.774V2.872a.776.776,0,0,0-.776-.774H25.771A.776.776,0,0,0,25,2.872V16.079a.776.776,0,0,0,.776.774H34.09a1.048,1.048,0,0,1,1.034.875l.322,1.915,3.511-2.586A1.05,1.05,0,0,1,39.579,16.853Z" transform="translate(-22.898 0)" fill="#ec6434" stroke="#ec6434" stroke-width="1"/>
    </g>
  </g>
</svg>
