<svg xmlns="http://www.w3.org/2000/svg" width="56.588" height="73.78" viewBox="0 0 56.588 73.78">
  <g id="payments" transform="translate(0.697 0.5)">
    <g id="XMLID_1153_" transform="translate(0 0)">
      <path id="XMLID_1329_" d="M113.7,40.36,102.829,23.325a4.831,4.831,0,0,0-.45-8.768l3.292-11.51a1.422,1.422,0,0,0-.361-1.4,5.623,5.623,0,0,0-7.943,0,2.755,2.755,0,0,1-1.961.812,2.757,2.757,0,0,1-1.964-.816l-.007-.007a5.627,5.627,0,0,0-7.93-.013l-.041.041a2.778,2.778,0,0,1-3.915-.007l-.01-.01a5.623,5.623,0,0,0-7.943,0,1.422,1.422,0,0,0-.361,1.4l3.3,11.506a4.831,4.831,0,0,0-.457,8.771L65.21,40.36A21.081,21.081,0,0,0,82.983,72.779h12.94A21.081,21.081,0,0,0,113.7,40.36ZM79.528,3.661l.01.01a5.627,5.627,0,0,0,7.93.013l.041-.041a2.779,2.779,0,0,1,3.918.01l.007.007a5.623,5.623,0,0,0,7.943,0,2.778,2.778,0,0,1,3.3-.47l-3.152,11.02H79.394L76.233,3.19a2.778,2.778,0,0,1,3.3.471Zm32.387,56.8a18,18,0,0,1-15.993,9.471H82.983A18.238,18.238,0,0,1,67.607,41.889L79.1,23.877h3.959a1.422,1.422,0,0,0,0-2.843H78.318a1.99,1.99,0,0,1,0-3.98h22.271a1.99,1.99,0,0,1,0,3.98H95.85a1.422,1.422,0,1,0,0,2.843h3.959L111.3,41.889A18,18,0,0,1,111.916,60.465Z" transform="translate(-61.857 0.001)" fill="#f7b411" stroke="#f7b411" stroke-width="1"/>
      <path id="XMLID_1341_" d="M217.828,250.566c-.357-.126-.721-.257-1.085-.394V243.73a5.84,5.84,0,0,1,1.635.763,1.422,1.422,0,0,0,1.71-2.271,8.683,8.683,0,0,0-3.345-1.416v-1.415a1.422,1.422,0,1,0-2.843,0v1.4a7.362,7.362,0,0,0-.732.179,5.693,5.693,0,0,0-3.9,4.465,5.02,5.02,0,0,0,1.644,4.949,13.684,13.684,0,0,0,2.991,1.7v8.244a5.683,5.683,0,0,1-3.117-1.142,1.422,1.422,0,1,0-1.556,2.379,8.392,8.392,0,0,0,4.673,1.608v1.47a1.422,1.422,0,1,0,2.843,0V263.03a6.853,6.853,0,0,0,5.224-5.583A6.013,6.013,0,0,0,217.828,250.566Zm-5.164-2.415a2.215,2.215,0,0,1-.6-2.184,2.9,2.9,0,0,1,1.841-2.24v5.206A8.508,8.508,0,0,1,212.664,248.152Zm6.5,8.824a4.076,4.076,0,0,1-2.42,3.079V253.2l.137.049A3.217,3.217,0,0,1,219.164,256.976Z" transform="translate(-187.726 -204.141)" fill="#f7b411" stroke="#f7b411" stroke-width="1"/>
      <path id="XMLID_1343_" d="M247.407,150.812a1.422,1.422,0,1,0-1.005-.417A1.432,1.432,0,0,0,247.407,150.812Z" transform="translate(-219.81 -126.934)" fill="#f7b411" stroke="#f7b411" stroke-width="1"/>
    </g>
  </g>
</svg>
