<svg id="qoute" xmlns="http://www.w3.org/2000/svg" width="56.926" height="34.192" viewBox="0 0 56.926 34.192">
  <path id="Path_2828" data-name="Path 2828" d="M12.949,0A12.949,12.949,0,0,1,25.9,12.949c0,10.15-6.973,15.941-14.569,21.067a1,1,0,0,1-1.439-1.307A17.523,17.523,0,0,0,12.1,25.87,12.949,12.949,0,0,1,12.949,0Z" transform="translate(0 0)" fill="#f7b411" fill-rule="evenodd"/>
  <path id="Path_2829" data-name="Path 2829" d="M217.84,0a12.949,12.949,0,0,1,12.949,12.949c0,10.15-6.972,15.941-14.568,21.067a1,1,0,0,1-1.44-1.307,17.5,17.5,0,0,0,2.212-6.839A12.949,12.949,0,0,1,217.84,0Z" transform="translate(-173.863 0)" fill="#f7b411" fill-rule="evenodd"/>
</svg>
