<svg xmlns="http://www.w3.org/2000/svg" width="18.019" height="22.1" viewBox="0 0 18.019 22.1">
  <path id="building" d="M63.21,20.581H61.79V3.194a.71.71,0,0,0-.71-.71H55.758V.71a.71.71,0,0,0-.71-.71H50.125a.71.71,0,0,0-.71.71V2.484h-.577a.71.71,0,0,0-.71.71V20.581H46.71a.71.71,0,1,0,0,1.419h16.5a.71.71,0,0,0,0-1.419ZM50.835,1.419h3.5V2.484h-3.5ZM53.54,20.581V17.565h2.839v3.016Zm4.258,0V17.565h.31a.71.71,0,1,0,0-1.419h-6.3a.71.71,0,0,0,0,1.419h.31v3.016H49.548V3.9H60.371V20.581ZM53.94,5.988a.71.71,0,0,1-.71.71h-.8a.71.71,0,1,1,0-1.419h.8A.71.71,0,0,1,53.94,5.988Zm4.214,0a.71.71,0,0,1-.71.71h-.8a.71.71,0,1,1,0-1.419h.8A.71.71,0,0,1,58.153,5.988ZM53.94,8.649a.71.71,0,0,1-.71.71h-.8a.71.71,0,1,1,0-1.419h.8A.71.71,0,0,1,53.94,8.649Zm4.214,0a.71.71,0,0,1-.71.71h-.8a.71.71,0,1,1,0-1.419h.8A.71.71,0,0,1,58.153,8.649ZM53.94,11.31a.71.71,0,0,1-.71.71h-.8a.71.71,0,1,1,0-1.419h.8A.71.71,0,0,1,53.94,11.31Zm4.214,0a.71.71,0,0,1-.71.71h-.8a.71.71,0,1,1,0-1.419h.8A.71.71,0,0,1,58.153,11.31ZM53.94,13.972a.71.71,0,0,1-.71.71h-.8a.71.71,0,1,1,0-1.419h.8A.71.71,0,0,1,53.94,13.972Zm4.214,0a.71.71,0,0,1-.71.71h-.8a.71.71,0,1,1,0-1.419h.8A.71.71,0,0,1,58.153,13.972Z" transform="translate(-45.95 0.05)" fill="#6d08df" stroke="#6d08df" stroke-linecap="round" stroke-linejoin="round" stroke-width="0.1"/>
</svg>
