<svg xmlns="http://www.w3.org/2000/svg" width="16.415" height="28.539" viewBox="0 0 16.415 28.539">
  <path id="facebook" d="M10.33,28.039H5.84a1.362,1.362,0,0,1-1.36-1.36V16.551H1.86A1.362,1.362,0,0,1,.5,15.191v-4.34a1.362,1.362,0,0,1,1.36-1.36H4.48V7.317a7.4,7.4,0,0,1,1.957-5.3A7.047,7.047,0,0,1,11.632,0l3.424.006a1.362,1.362,0,0,1,1.358,1.36V5.395a1.361,1.361,0,0,1-1.36,1.36H12.749c-.7,0-.882.141-.921.184-.063.072-.138.274-.138.834V9.49h3.191a1.382,1.382,0,0,1,.673.171,1.365,1.365,0,0,1,.7,1.19l0,4.34a1.362,1.362,0,0,1-1.36,1.36h-3.2V26.678a1.362,1.362,0,0,1-1.36,1.36ZM6.124,26.395h3.923V15.815a.909.909,0,0,1,.908-.908h3.654V11.134H10.954a.909.909,0,0,1-.908-.908V7.773a2.8,2.8,0,0,1,.55-1.921,2.786,2.786,0,0,1,2.152-.74h2.022V1.649l-3.14-.005c-3.4,0-5.507,2.174-5.507,5.674v2.909a.909.909,0,0,1-.908.908H2.144v3.772H5.216a.909.909,0,0,1,.908.908Zm8.93-24.746h0Zm0,0" transform="translate(-0.25 0.25)" fill="#fff" stroke="#fff" stroke-width="0.5"/>
</svg>
