<?xml version="1.0" encoding="utf-8"?>
<!-- Generator: Adobe Illustrator 25.0.1, SVG Export Plug-In . SVG Version: 6.00 Build 0)  -->
<svg version="1.1" id="Layer_1" xmlns="http://www.w3.org/2000/svg" xmlns:xlink="http://www.w3.org/1999/xlink" x="0px" y="0px"
	 viewBox="0 0 34.6 39.8" style="enable-background:new 0 0 34.6 39.8;" xml:space="preserve">
<style type="text/css">
	.st0{fill:url(#Path_2837_1_);}
</style>
<linearGradient id="Path_2837_1_" gradientUnits="userSpaceOnUse" x1="-529.0579" y1="1208.7853" x2="-528.6158" y2="1208.0913" gradientTransform="matrix(34.6449 0 0 -39.8592 18336.4512 48188.5508)">
	<stop  offset="0" style="stop-color:#F6A819"/>
	<stop  offset="0.372" style="stop-color:#EF306A"/>
	<stop  offset="1" style="stop-color:#6911E5"/>
</linearGradient>
<path id="Path_2837" class="st0" d="M30.4,24.5c-2.2-1.1-4.9-1.2-7.4-1.1l-7,0c0-5.6,0-12.2,0-14.1c0.1-1.5-0.1-3.1-0.5-4.6
	C14.3,2.1,11.8,0.3,8.9,0C7-0.2,5.1,0.3,3.4,1.3c-0.4,0.2-0.7,0.5-1,0.8C1.7,2.8,1,3.6,0.6,4.6C0.5,4.9,0.4,5.1,0.3,5.4
	C0.3,5.6,0.2,5.8,0.1,6c0,0.3,0,0.7,0,1c0,0.3,0,0.7,0,1c0,2.7-0.1,5.4-0.1,8.1c0,3.2,0.1,6.7,2.4,8.9c2,1.9,5.1,2,7.9,2h2.3
	c0,1.9,0,3.4,0,4.1c0,0.1,0,0.2,0,0.3c0,0,0,0,0,0c0,0.3,0.1,0.6,0.1,0.9c0.2,2,1.1,3.9,2.5,5.3c2.1,1.9,5.3,2.2,8.2,2.2
	c2.4,0,4.8-0.2,7-1.2c2.6-1.4,4.2-4.1,4.3-7.1C34.6,28.6,33,25.9,30.4,24.5z M9.2,23.5c-1.7,0-3.5-0.1-4.7-1.3
	c-1-1.1-1.1-2.8-1.1-4.3c0-3.3,0-6.5,0-9.8c0-0.8,0.1-1.6,0.3-2.3c0.7-1.4,2.1-2.4,3.7-2.5c1.5-0.2,3,0.3,4.1,1.4
	c1.1,1.3,1.1,3,1.1,4.7c0,1.9,0,8.6-0.1,14.1L9.2,23.5z M28.3,35.7c-1.5,0.6-3.2,0.6-4.9,0.6c-1.7,0-3.5,0-5-0.8
	c-1.2-0.7-2-1.9-2.3-3.3c0-0.2-0.1-0.5-0.1-0.6l0,0c0,0,0,0,0,0v0c0-0.9,0-2.6,0-4.7l9.4,0c0.9,0,1.8,0,2.7,0.3
	c1.8,0.6,3,2.3,3.1,4.1C31.2,33.2,30.1,35,28.3,35.7L28.3,35.7z"/>
</svg>
