<svg xmlns="http://www.w3.org/2000/svg" width="63.803" height="63.607" viewBox="0 0 63.803 63.607">
  <g id="mission" transform="translate(-518.743 -1242.493)">
    <path id="Path_2830" data-name="Path 2830" d="M50.92,23.9a9.561,9.561,0,0,0-6.76,16.38A9.561,9.561,0,1,0,57.68,26.76,9.441,9.441,0,0,0,50.92,23.9Zm3.38,13a4.57,4.57,0,1,1,1.56-3.38A5.463,5.463,0,0,1,54.3,36.9Z" transform="translate(511.027 1229.308)" fill="#ec6434" stroke="#fff" stroke-width="1"/>
    <path id="Path_2831" data-name="Path 2831" d="M73.207,16.116c-5.07-.26-14.69,0-23.92,4.81a50.281,50.281,0,0,0-13.78,11.31l-8.71.65a5.2,5.2,0,0,0-4.03,2.47l-6.11,9.23a3.585,3.585,0,0,0-.26,3.77,4.237,4.237,0,0,0,2.99,2.34l6.89,1.04a5.49,5.49,0,0,0,1.56,4.55l10.53,10.53a5.777,5.777,0,0,0,4.55,1.56l1.04,6.89a3.941,3.941,0,0,0,2.34,2.99,3.461,3.461,0,0,0,1.56.39,4.383,4.383,0,0,0,2.21-.65l9.23-6.11a5.413,5.413,0,0,0,2.47-4.03l.65-8.71a44.444,44.444,0,0,0,11.31-13.78,47.919,47.919,0,0,0,4.81-23.92A5.835,5.835,0,0,0,73.207,16.116ZM27.316,46.926l-5.85-.91,5.33-7.93c.13-.13.26-.26.39-.26l4.55-.39A39.256,39.256,0,0,0,27.316,46.926Zm14.82,16.38a.478.478,0,0,1-.39-.13l-10.53-10.53a.478.478,0,0,1-.13-.39,25.75,25.75,0,0,1,1.04-4.29l14.3,14.3A25.751,25.751,0,0,1,42.136,63.306Zm14.43,3.9c0,.13-.13.26-.26.39l-7.93,5.33-.91-5.85a41.674,41.674,0,0,0,9.49-4.42ZM69.177,42.9a42.012,42.012,0,0,1-10.14,12.22,36.4,36.4,0,0,1-7.8,5.07l-17.16-17.03a42.136,42.136,0,0,1,5.07-7.8,41.636,41.636,0,0,1,12.22-10.14c8.19-4.29,16.9-4.55,21.45-4.29a.559.559,0,0,1,.52.52A40.991,40.991,0,0,1,69.177,42.9Z" transform="translate(503.431 1226.953)" fill="#ec6434" stroke="#fff" stroke-width="1"/>
    <path id="Path_2832" data-name="Path 2832" d="M18.478,58.138a2.471,2.471,0,0,0,1.69-.65l5.85-5.85a2.288,2.288,0,0,0,.78-1.69,2.1,2.1,0,0,0-.78-1.69,2.6,2.6,0,0,0-3.51,0l-5.85,5.85a2.6,2.6,0,0,0,0,3.51A4.232,4.232,0,0,0,18.478,58.138Z" transform="translate(503.429 1236.411)" fill="#ec6434" stroke="#fff" stroke-width="1"/>
    <path id="Path_2833" data-name="Path 2833" d="M16.68,66.988a2.288,2.288,0,0,0,1.69.78,2.471,2.471,0,0,0,1.69-.65l11.18-11.18a2.153,2.153,0,0,0,.65-1.69,2.471,2.471,0,0,0-.65-1.69,2.6,2.6,0,0,0-3.51,0L16.55,63.738a2.153,2.153,0,0,0-.65,1.69A2.567,2.567,0,0,0,16.68,66.988Z" transform="translate(503.406 1237.701)" fill="#ec6434" stroke="#fff" stroke-width="1"/>
    <path id="Path_2834" data-name="Path 2834" d="M24.961,65.718a2.153,2.153,0,0,0,1.69.65,2.471,2.471,0,0,0,1.69-.65l5.85-5.85a2.482,2.482,0,1,0-3.51-3.51l-5.85,5.85A2.745,2.745,0,0,0,24.961,65.718Z" transform="translate(505.915 1238.841)" fill="#ec6434" stroke="#fff" stroke-width="1"/>
  </g>
</svg>
