<svg xmlns="http://www.w3.org/2000/svg" width="54.366" height="54.002" viewBox="0 0 54.366 54.002">
  <g id="offer" transform="translate(0.5 0.246)">
    <path id="Path_2102" data-name="Path 2102" d="M115.75,23.262l0,.034a5.753,5.753,0,0,0,3.283,5.488l.022.011a3.868,3.868,0,0,1,1.752,1.685l.009.016a6.011,6.011,0,0,0,5.65,3.153l.036,0a4.114,4.114,0,0,1,2.432.632,6.166,6.166,0,0,0,6.54,0,4.114,4.114,0,0,1,2.432-.632l.036,0a6.015,6.015,0,0,0,5.651-3.156l.005-.011a3.875,3.875,0,0,1,1.757-1.688l.017-.009a5.753,5.753,0,0,0,3.283-5.489l0-.032a3.681,3.681,0,0,1,.641-2.281,5.66,5.66,0,0,0,0-6.4,3.681,3.681,0,0,1-.641-2.28l0-.034a5.753,5.753,0,0,0-3.285-5.489l-.019-.01A3.865,3.865,0,0,1,143.6,5.089l-.011-.022a6.016,6.016,0,0,0-5.649-3.153l-.036,0a4.111,4.111,0,0,1-2.431-.632h0a6.166,6.166,0,0,0-6.54,0,4.117,4.117,0,0,1-2.432.632l-.036,0a6.012,6.012,0,0,0-5.649,3.152l-.008.015a3.87,3.87,0,0,1-1.754,1.687l-.02.01a5.753,5.753,0,0,0-3.283,5.489l0,.032a3.679,3.679,0,0,1-.641,2.281,5.66,5.66,0,0,0,0,6.4A3.678,3.678,0,0,1,115.75,23.262Zm.993-7.555a5.674,5.674,0,0,0,.989-3.52l0-.034A3.773,3.773,0,0,1,119.9,8.565l.017-.008a5.843,5.843,0,0,0,2.647-2.548l.01-.018A4.024,4.024,0,0,1,126.357,3.9h.035a6.08,6.08,0,0,0,3.6-.935,4.171,4.171,0,0,1,4.424,0,6.094,6.094,0,0,0,3.6.935l.035,0a4.018,4.018,0,0,1,3.785,2.089l.013.025a5.843,5.843,0,0,0,2.644,2.544l.016.008a3.774,3.774,0,0,1,2.169,3.59l0,.035a5.673,5.673,0,0,0,.989,3.519,3.665,3.665,0,0,1,0,4.146,5.679,5.679,0,0,0-.988,3.52l0,.033A3.775,3.775,0,0,1,144.5,27l-.015.007a5.85,5.85,0,0,0-2.649,2.552l-.007.015a4.022,4.022,0,0,1-3.787,2.093l-.034,0a6.091,6.091,0,0,0-3.6.935,4.171,4.171,0,0,1-4.423,0,6.082,6.082,0,0,0-3.26-.944q-.168,0-.337.009h-.035a4.02,4.02,0,0,1-3.788-2.1l-.01-.019a5.836,5.836,0,0,0-2.642-2.544L119.9,27a3.773,3.773,0,0,1-2.169-3.59l0-.035a5.678,5.678,0,0,0-.989-3.519,3.665,3.665,0,0,1,0-4.146Zm0,0" transform="translate(-99.961)" fill="#ad3789" stroke="#ad3789" stroke-miterlimit="10" stroke-width="1"/>
    <path id="Path_2103" data-name="Path 2103" d="M204.971,77.6a.992.992,0,0,0,1.367-.316l11.756-18.833A.993.993,0,1,0,216.41,57.4L204.655,76.235A.992.992,0,0,0,204.971,77.6Zm0,0" transform="translate(-179.135 -49.562)" fill="#ad3789" stroke="#ad3789" stroke-miterlimit="10" stroke-width="1"/>
    <path id="Path_2104" data-name="Path 2104" d="M185.816,70.714c2.417,0,4.383-2.242,4.383-5s-1.966-5-4.383-5-4.382,2.242-4.382,5S183.4,70.714,185.816,70.714Zm0-8.01c1.322,0,2.4,1.351,2.4,3.013s-1.076,3.013-2.4,3.013-2.4-1.352-2.4-3.013S184.494,62.7,185.816,62.7Zm0,0" transform="translate(-158.927 -52.884)" fill="#ad3789" stroke="#ad3789" stroke-miterlimit="10" stroke-width="1"/>
    <path id="Path_2105" data-name="Path 2105" d="M267.684,145.513c0,2.756,1.966,5,4.382,5s4.383-2.242,4.383-5-1.966-5-4.382-5S267.684,142.757,267.684,145.513Zm6.781,0c0,1.661-1.076,3.013-2.4,3.013s-2.4-1.351-2.4-3.013,1.076-3.013,2.4-3.013S274.465,143.851,274.465,145.513Zm0,0" transform="translate(-234.477 -122.782)" fill="#ad3789" stroke="#ad3789" stroke-miterlimit="10" stroke-width="1"/>
    <path id="Path_2106" data-name="Path 2106" d="M53.175,271.477a5.013,5.013,0,0,0-6.62-2.018l-7.774,3.673a6.333,6.333,0,0,0-5.4-3.331l-7.176-.2a7.586,7.586,0,0,1-3.262-.842l-.73-.378a12.881,12.881,0,0,0-11.931.013l.046-1.654a.992.992,0,0,0-.965-1.02L1.5,265.506a.992.992,0,0,0-1.019.965L0,283.74a.992.992,0,0,0,.965,1.02l7.869.217h.028a.993.993,0,0,0,.992-.965l.022-.826,2.044-1.095a3.508,3.508,0,0,1,2.618-.286l12.208,3.426.064.016a13.067,13.067,0,0,0,2.684.277,13.24,13.24,0,0,0,5.531-1.207.979.979,0,0,0,.123-.067l17.7-11.45a.992.992,0,0,0,.325-1.322ZM2.012,282.8l.421-15.285,5.886.162L7.9,282.965Zm32.119-.26a11.248,11.248,0,0,1-6.881.768l-12.175-3.417a5.486,5.486,0,0,0-4.091.447L9.94,280.9l.28-10.163a10.908,10.908,0,0,1,11.082-.591l.73.378a9.58,9.58,0,0,0,4.12,1.064l7.176.2a4.352,4.352,0,0,1,4.137,3.468l-10.69-.294a.993.993,0,0,0-.054,1.984l11.8.325h.028a.993.993,0,0,0,.991-.965,6.333,6.333,0,0,0-.1-1.288l7.972-3.768.023-.011a3.031,3.031,0,0,1,3.429.48Zm0,0" transform="translate(0 -232.267)" fill="#ad3789" stroke="#ad3789" stroke-miterlimit="10" stroke-width="1"/>
  </g>
</svg>
