<svg xmlns="http://www.w3.org/2000/svg" width="31.189" height="25.613" viewBox="0 0 31.189 25.613">
  <path id="twitter" d="M30.444,3.1a.9.9,0,0,0-1.037-.269l-.173.069A6.789,6.789,0,0,0,29.8,1.627a.9.9,0,0,0-1.222-1.1l-.064.031a14.964,14.964,0,0,1-3.039,1.232l-.1-.093A6.287,6.287,0,0,0,20.819,0a6.843,6.843,0,0,0-4.935,2.172,7.058,7.058,0,0,0-1.708,4.957A15.871,15.871,0,0,1,3.653,1.358a.9.9,0,0,0-1.5.212,8.159,8.159,0,0,0-.825,3.744,6.363,6.363,0,0,0,.855,2.915.9.9,0,0,0-.941.956,6.974,6.974,0,0,0,2.459,5.2.9.9,0,0,0-.3.949,6.754,6.754,0,0,0,3.927,4.23A11.827,11.827,0,0,1,.971,20.726a.9.9,0,0,0-.538,1.663,18.342,18.342,0,0,0,9.62,2.724A16.508,16.508,0,0,0,23.886,18.43a19.37,19.37,0,0,0,3.8-10.808c0-.345-.01-.415,0-.513a10.252,10.252,0,0,0,2.8-2.944.9.9,0,0,0-.041-1.07ZM25.886,7.338c0,.062,0,.145,0,.285a17.459,17.459,0,0,1-3.443,9.735,14.773,14.773,0,0,1-12.395,5.96,16.342,16.342,0,0,1-5.536-.957,12.806,12.806,0,0,0,5.669-2.488.9.9,0,0,0-.5-1.607A5.165,5.165,0,0,1,5.69,16.02a11.329,11.329,0,0,0,1.224-.165.9.9,0,0,0,.111-1.741,5.061,5.061,0,0,1-3.768-3.631A10.926,10.926,0,0,0,4.6,10.71a.9.9,0,0,0,.691-1.577C3,7.2,2.882,5.227,3.3,3.635A17.637,17.637,0,0,0,15.067,9.017a.9.9,0,0,0,.955-.986,5.806,5.806,0,0,1,1.193-4.655,5.082,5.082,0,0,1,3.6-1.593,4.464,4.464,0,0,1,3.364,1.255,1.658,1.658,0,0,0,1.108.567,4.327,4.327,0,0,0,1.22-.242q-.249.211-.534.408A.9.9,0,0,0,26.556,5.4q.233-.018.47-.049a2.023,2.023,0,0,0-1.14,1.982Zm0,0" transform="translate(0.269 0.25)" fill="#fff" stroke="#fff" stroke-width="0.5"/>
</svg>
