<svg xmlns="http://www.w3.org/2000/svg" width="69.999" height="55.47" viewBox="0 0 69.999 55.47">
  <path id="vision" d="M220.271,251.19l2.607-5.211a1.816,1.816,0,1,1,3.246,1.627l-2.923,5.846a37.692,37.692,0,0,1,8.639,10.872,26.68,26.68,0,0,1,1.645,3.682,1.815,1.815,0,0,1,0,1.147,26.18,26.18,0,0,1-1.649,3.679A37.693,37.693,0,0,1,226.3,280.7c-6.573,7.168-15.56,11.482-27.213,11.482s-20.641-4.314-27.213-11.482a37.691,37.691,0,0,1-5.541-7.873,26.3,26.3,0,0,1-1.649-3.678,1.816,1.816,0,0,1,0-1.148,26.186,26.186,0,0,1,1.649-3.679,37.694,37.694,0,0,1,8.635-10.872l-2.923-5.85a1.816,1.816,0,1,1,3.246-1.627l2.607,5.211a35.958,35.958,0,0,1,19.373-6.173V239.53a1.816,1.816,0,1,1,3.631,0v5.483a35.9,35.9,0,0,1,19.373,6.177Zm-50.73,19.947a34.087,34.087,0,0,0,5.008,7.11c5.9,6.449,13.944,10.306,24.533,10.306s18.625-3.856,24.533-10.306a34.086,34.086,0,0,0,5.011-7.11,27.343,27.343,0,0,0,1.2-2.556,27.338,27.338,0,0,0-1.2-2.556,34.086,34.086,0,0,0-5.011-7.11c-5.9-6.449-13.944-10.306-24.533-10.306s-18.625,3.857-24.533,10.306a34.087,34.087,0,0,0-5.011,7.11,27.354,27.354,0,0,0-1.2,2.556,26.433,26.433,0,0,0,1.2,2.556Zm29.541-18.9a12.71,12.71,0,0,1,12.71,12.71v7.263a12.71,12.71,0,1,1-25.419,0v-7.263A12.71,12.71,0,0,1,199.082,252.24Zm0,3.631A9.078,9.078,0,0,0,190,264.949v7.263a9.078,9.078,0,0,0,18.157,0v-7.263a9.078,9.078,0,0,0-9.078-9.078Z" transform="translate(-164.082 -237.214)" fill="#f7b411" stroke="#f7b411" stroke-width="1"/>
</svg>
